<?xml version="1.0" encoding="utf-8"?>
<!-- Generator: Adobe Illustrator 24.3.0, SVG Export Plug-In . SVG Version: 6.00 Build 0)  -->
<svg version="1.1" xmlns="http://www.w3.org/2000/svg" xmlns:xlink="http://www.w3.org/1999/xlink" x="0px" y="0px"
	 viewBox="0 0 1920 1080" style="enable-background:new 0 0 1920 1080;" xml:space="preserve">
<style type="text/css">
	.st0{fill:url(#SVGID_1_);}
	.st1{fill:url(#SVGID_2_);}
</style>
<g id="Camada_2">
	<linearGradient id="SVGID_1_" gradientUnits="userSpaceOnUse" x1="619.4587" y1="528.0106" x2="1182.1499" y2="528.0106">
		<stop  offset="0.0273" style="stop-color:#21A049"/>
		<stop  offset="0.4693" style="stop-color:#21A04B"/>
		<stop  offset="0.6285" style="stop-color:#20A152"/>
		<stop  offset="0.742" style="stop-color:#1FA25D"/>
		<stop  offset="0.8337" style="stop-color:#1EA46E"/>
		<stop  offset="0.9122" style="stop-color:#1DA784"/>
		<stop  offset="0.9806" style="stop-color:#1BAA9F"/>
		<stop  offset="1" style="stop-color:#1AABA8"/>
	</linearGradient>
	<path class="st0" d="M755.21,664.49c0.76-1.43-12.44-9.72-17.05-12.77c-29.76-19.71-61.26-59.59-73.67-105.38
		c-15.6-57.59,3.9-106.41,9.52-119.89c37.18-89.36,127.86-115.43,139.56-118.63c66.19-18.05,121.22,1.93,139.56,8.88
		c19.95,7.56,38.32,18.89,38.32,18.89c0.07,0.04,0.36,0.22,0.7,0.42c0,0,21.22,12.98,39.64,30.16
		c43.88,40.95,65.34,100.86,65.34,100.86c4.24,11.82,16.83,49.61,15.22,100.23c-1.48,46.71-14.32,81.35-19.67,94.52
		c-23.38,57.57-60.59,91.17-78.03,106.57c-16.2,14.31-43.88,38.32-85.96,54.24c-18.68,7.06-39.52,12.28-39.01,14.59
		c0.57,2.62,28.01-1.06,39.01-2.54c14.5-1.95,29.08-4.5,35.84-6.03c24.08-5.45,71.07-25.6,114.18-65.97
		c58.21-54.52,79.11-117.6,86.91-142.1c27.69-87.04,12.95-159,9.52-174.45c-3.6-16.2-10.21-44.94-28.86-78.03
		c-32.49-57.62-78.35-87.38-101.61-102.08c-15.82-10-30.77-17.24-33.28-18.44c-26.17-12.54-47.72-18.48-54.68-20.31
		c-40.42-10.61-74.43-9.72-88.6-8.88c-22.67,1.34-86.99,6.03-147.81,52.65c-9.93,7.61-36.41,29.1-59.63,65.34
		c-12.14,18.95-41.39,70.02-41.23,138.92c0.03,14.96,0.35,42.57,12.69,75.49c11.58,30.89,27.8,50.55,31.72,55.19
		c21.7,25.67,45.05,38.32,57.73,45.04C736.33,658.82,754.37,666.08,755.21,664.49z"/>
</g>
<g id="Camada_3">
	<linearGradient id="SVGID_2_" gradientUnits="userSpaceOnUse" x1="470.4127" y1="505.0444" x2="1104.093" y2="505.0444">
		<stop  offset="0" style="stop-color:#FAA220"/>
		<stop  offset="0.2209" style="stop-color:#F6A321"/>
		<stop  offset="0.4173" style="stop-color:#ECA424"/>
		<stop  offset="0.6043" style="stop-color:#D9A72A"/>
		<stop  offset="0.7855" style="stop-color:#C0AB31"/>
		<stop  offset="0.9611" style="stop-color:#9FB13B"/>
		<stop  offset="1" style="stop-color:#97B23D"/>
	</linearGradient>
	<path class="st1" d="M975.28,213.09c6.62,4.26,16.82,12,37.22,27.49c7.8,5.92,12.09,9.28,11.63,10.04
		c-0.88,1.48-18.57-8.31-33.41-15.01c-32.07-14.48-59.64-18.48-75.07-20.72c-17.46-2.53-56.73-7.81-105.52,4.44
		c-50.11,12.58-83.59,36.98-96.37,47.05c-37.64,29.67-56.63,62.06-66.32,78.95c-9.62,16.78-30.53,57.14-36.08,108.55
		c-2.54,23.59-1.02,41.78-0.56,46.78c1.9,20.41,6.31,37.29,10.39,49.63c4.94,14.99,13.08,32.85,26.64,50.44
		c0,0,24.63,31.86,62.48,50.17c5.25,2.54,9.71,4.37,12.74,5.55c2.08,0.82,4.04,1.54,5.9,2.2c6.89,2.42,12.18,3.86,14.4,4.46
		c8.87,2.41,25.22,7.06,31.08,8.62c19.72,5.25,37.46,6.35,41.02,6.56c8.47,0.48,19.82,0.56,33.25-1
		c18.95-3.04,77.34-14.91,124.6-66.34c41.01-44.63,50.24-93.57,53.6-112.81c3.43-19.65,14.82-82.24-19.96-137.58
		c-6.58-10.47-11.81-16.61-11.81-16.61c-2.46-2.89-4.51-4.99-4.32-5.19c0.49-0.52,15.31,12.68,18.44,15.5
		c27.35,24.69,46.84,56.38,54,68.71c9.09,15.66,25.7,44.82,34.7,86.91c7.2,33.64,6.26,60.21,5.81,68.75
		c-2,38.58-12.32,66.96-16.18,76.84c-10.74,27.51-23.88,46.02-31.4,56.46c-22.91,31.82-46.79,50.9-63.12,63.75
		c-20.91,16.46-38.34,26.56-49.96,33.22c-23.55,13.52-43.34,24.88-71.52,31.96c-22.32,5.61-41.43,6.4-54.08,6.18
		c-20.38,1.2-49.43,0.88-83.21-6.45c-16.4-3.56-56.64-13.7-100.92-41.76c-7.63-4.84-39.89-25.73-73.22-63.86
		c-64.47-73.75-80.63-152.15-83.74-168.42c-7.03-36.92-6.78-68.78-4.97-91.72c2.8-34.44,12.69-94.59,51.59-155.68
		c8.2-12.88,29.8-44.8,67.16-76.48c42.82-36.31,83.69-53.06,98.99-58.85c49.24-18.62,90.77-20.87,107.37-21.25
		c0,0,63.6-1.45,122.33,21.46C942.93,193.38,964.14,205.92,975.28,213.09z"/>
</g>
</svg>
